<svg version="1.1" id="Layer_1" xmlns="http://www.w3.org/2000/svg" xmlns:xlink="http://www.w3.org/1999/xlink" x="0px" y="0px"
	 width="80" viewBox="0 0 500 500" enable-background="new 0 0 500 500" xml:space="preserve">
<path fill="#4EB16B" opacity="1.000000" stroke="none" 
	d="
M341.000000,501.000000 
	C228.666687,501.000000 116.833366,500.979889 5.000178,501.095337 
	C1.576385,501.098877 0.903033,500.423889 0.905298,497.000031 
	C1.013776,333.000122 1.013758,169.000153 0.905339,5.000262 
	C0.903076,1.576995 1.575748,0.903019 4.999861,0.905284 
	C168.999756,1.013775 332.999725,1.013760 496.999634,0.905354 
	C500.422638,0.903092 501.097015,1.575402 501.094757,4.999742 
	C500.986237,168.999634 500.986237,332.999603 501.094604,496.999512 
	C501.096893,500.422272 500.426270,501.106750 497.000153,501.097473 
	C445.167084,500.957031 393.333466,501.000000 341.000000,501.000000 
z"/>
<path fill="#6B4EB1" opacity="1.000000" stroke="none" 
	d="
M210.716370,343.546204 
	C193.984253,343.895905 177.486664,344.008972 160.989761,343.944092 
	C155.746689,343.923462 153.888794,341.908142 153.882492,336.483948 
	C153.837036,297.319183 153.883545,258.154236 153.802185,218.989578 
	C153.795929,215.976730 155.069885,214.038910 157.173370,212.176819 
	C187.493835,185.336029 217.798157,158.476883 248.040359,131.548050 
	C250.225296,129.602509 251.677139,129.489029 253.917984,131.486694 
	C284.268494,158.543686 314.678497,185.534058 345.126221,212.481689 
	C347.319550,214.422882 348.174042,216.542084 348.169189,219.438370 
	C348.104065,258.269806 348.142792,297.101410 348.106049,335.932892 
	C348.100159,342.167053 346.299652,343.848846 340.010773,343.993103 
	C338.345001,344.031311 336.678528,344.040192 334.567505,344.104553 
	C332.498230,345.902588 331.146759,344.720032 329.781403,343.739288 
	C316.682190,334.330444 301.999969,331.550323 286.213776,333.242706 
	C281.087677,333.792236 279.756012,332.468018 279.542114,327.159821 
	C279.372986,322.962067 280.257721,318.871216 280.903015,314.778839 
	C282.366272,305.499207 281.099854,296.481232 278.329407,287.689240 
	C274.712372,276.210571 266.431244,268.998779 255.459717,264.914429 
	C249.457367,262.679962 244.507187,259.377106 240.848770,254.176743 
	C238.739380,251.178238 235.125626,249.615463 233.513870,246.129211 
	C231.201553,241.127594 228.714691,236.229431 230.387131,230.417267 
	C230.746231,229.169327 230.567749,227.764053 230.495132,226.436600 
	C230.389679,224.508759 231.078262,222.031006 228.800461,221.116669 
	C226.428314,220.164490 225.338791,222.504715 224.099304,223.969330 
	C219.315292,229.622284 209.288773,230.354401 203.508270,225.547989 
	C201.437729,223.826401 199.419052,220.516037 196.419998,222.217468 
	C193.658508,223.784088 195.381714,227.165131 195.811661,229.616806 
	C196.521866,233.666580 196.414871,237.468414 195.040787,241.382095 
	C192.851440,247.617798 194.691025,253.391876 198.499481,258.285858 
	C202.927216,263.975677 205.892929,269.828369 205.959152,277.302887 
	C206.005417,282.525421 208.904251,287.243500 211.716171,291.513794 
	C219.609589,303.501068 217.526962,316.748871 217.114655,329.790039 
	C216.949173,335.024628 212.352844,338.448517 210.716370,343.546204 
z"/>
<path fill="#F5BB6E" opacity="1.000000" stroke="none" 
	d="
M210.743042,344.058411 
	C208.107986,341.228455 208.230225,338.494324 211.023193,336.564087 
	C213.881989,334.588287 214.700745,331.915100 214.787476,328.870941 
	C214.996140,321.547943 215.147232,314.218658 215.079300,306.894165 
	C215.040955,302.760895 212.599167,299.366943 210.842209,295.803680 
	C207.113556,288.241699 202.244003,281.147949 203.077881,271.982910 
	C203.342484,269.074524 201.671173,266.270386 199.565598,263.931549 
	C192.690842,256.295074 188.741882,248.152405 193.715393,237.622452 
	C195.426102,234.000488 192.840698,229.827866 192.588089,225.862778 
	C192.381226,222.615692 190.506454,218.342407 193.774582,216.619583 
	C196.680481,215.087723 199.127335,219.054276 201.700806,220.731979 
	C204.788284,222.744797 206.734589,226.326828 211.373306,226.152802 
	C216.777618,225.950089 221.677704,225.730957 224.050232,219.743332 
	C224.508575,218.586578 225.691071,217.648849 226.692139,216.787445 
	C230.107971,213.848190 232.306213,214.704269 233.091553,219.218658 
	C233.698608,222.708298 233.533768,226.260147 232.937759,229.664658 
	C231.450928,238.157654 235.128830,244.053040 240.514771,250.363907 
	C246.293106,257.134644 253.125275,260.969635 260.959351,264.581726 
	C277.565216,272.238281 283.093201,287.037872 283.836517,304.241638 
	C284.147858,311.447723 283.091614,318.546906 281.782684,325.574799 
	C280.913849,330.239807 282.210327,331.350861 286.878967,330.798340 
	C300.961884,329.131714 314.434601,331.332581 326.776825,338.674957 
	C329.187622,340.109131 331.275665,342.085815 333.817596,343.979431 
	C337.083313,349.640137 336.853851,352.586090 332.311584,356.421295 
	C324.809357,362.755768 315.931274,365.782562 306.157898,365.896790 
	C303.651794,365.926086 300.162933,365.942871 299.970123,362.392212 
	C299.802704,359.309662 302.472321,358.083008 305.319214,357.497131 
	C309.382202,356.661041 313.461548,355.816406 317.270721,354.086884 
	C319.364105,353.136353 322.003235,352.412476 322.113098,349.651001 
	C322.234772,346.592438 319.475464,345.750885 317.223785,344.722168 
	C316.476410,344.380676 315.654572,344.202148 314.448669,343.899139 
	C305.674866,342.615692 297.302277,342.741364 288.563293,343.702942 
	C284.986053,344.103699 282.195343,345.603302 279.318268,346.859741 
	C275.125732,348.690674 270.839630,349.782745 266.324921,348.083191 
	C264.310303,347.324738 262.410217,347.934845 260.485291,348.366333 
	C254.348206,349.741974 248.231064,351.198242 241.864273,351.011536 
	C237.706375,350.889648 234.782410,349.424408 234.393173,344.448975 
	C233.156799,342.330170 231.680359,342.964966 229.896484,343.737549 
	C227.272324,346.762207 224.838242,349.602173 220.824738,349.860626 
	C216.414627,350.144592 212.549347,349.158447 210.743042,344.058411 
z"/>
<path fill="#6B4FB0" opacity="1.000000" stroke="none" 
	d="
M343.927094,193.067276 
	C313.976807,166.549530 284.259247,140.304428 254.673828,113.911194 
	C251.795807,111.343704 250.103851,111.457993 247.292847,113.958725 
	C209.207306,147.840485 171.016983,181.604431 132.850891,215.395630 
	C131.977859,216.168594 131.003448,216.843994 130.217804,217.695450 
	C128.051117,220.043671 126.251938,220.022812 124.184631,217.404083 
	C121.504578,214.009155 118.657494,210.717545 115.615402,207.645782 
	C113.065872,205.071381 113.001907,203.354309 115.896637,200.823196 
	C136.086975,183.168930 156.134079,165.350891 176.225250,147.583252 
	C199.436035,127.056816 222.717865,106.609573 245.783005,85.920769 
	C249.638382,82.462608 252.101013,82.254768 256.095886,85.811066 
	C299.271667,124.247002 342.594421,162.518082 385.951843,200.749374 
	C388.658020,203.135620 389.266510,204.873825 386.470459,207.532700 
	C384.064850,209.820251 381.996063,212.464661 379.804321,214.973969 
	C374.443787,221.111099 375.791779,221.153732 369.277191,215.483231 
	C360.858582,208.155472 352.551697,200.699417 343.927094,193.067276 
z"/>
<path fill="#6A50B0" opacity="1.000000" stroke="none" 
	d="
M183.649536,99.387543 
	C187.453049,99.148880 189.155655,100.551407 188.766846,104.050560 
	C188.748596,104.214867 188.742432,104.385681 188.765182,104.548653 
	C190.263657,115.286827 187.034744,123.512764 177.793015,130.122879 
	C169.642685,135.952362 162.672501,143.431870 155.244049,150.126160 
	C153.383652,148.831909 153.869354,147.376785 153.865524,146.152618 
	C153.822327,132.353622 153.964584,118.552582 153.761444,104.756439 
	C153.699936,100.577682 155.203934,99.215111 159.255753,99.322861 
	C167.230316,99.534920 175.214523,99.383575 183.649536,99.387543 
z"/>
<path fill="#4B2C1C" opacity="1.000000" stroke="none" 
	d="
M240.045349,400.248718 
	C241.761292,407.310150 241.324188,413.893646 239.026642,420.294647 
	C235.020706,431.455383 223.180756,436.635406 212.169815,432.201660 
	C206.165939,429.784027 203.873032,424.784821 203.165176,418.879730 
	C202.628937,414.406433 202.861572,409.917847 204.015350,405.504883 
	C207.236420,393.184692 219.842682,386.610107 231.817093,391.018341 
	C236.054230,392.578186 238.600266,395.650665 240.045349,400.248718 
z"/>
<path fill="#4B2D1C" opacity="1.000000" stroke="none" 
	d="
M428.894135,414.629456 
	C429.363159,407.705292 429.928833,401.250092 430.184052,394.782593 
	C430.306030,391.691345 431.437012,390.250885 434.603302,390.183624 
	C439.914764,390.070801 445.231842,389.585846 450.455688,391.007538 
	C458.818512,393.283539 461.712952,401.852600 456.059296,408.470367 
	C454.286194,410.545898 454.592224,411.257629 456.197235,413.104736 
	C461.191254,418.852234 459.208405,427.868408 452.211914,431.177124 
	C445.991821,434.118744 439.347931,434.267731 432.716766,432.754272 
	C429.576904,432.037659 427.966034,429.726532 428.080688,426.516510 
	C428.216858,422.704346 428.591766,418.900665 428.894135,414.629456 
z"/>
<path fill="#4B2D1C" opacity="1.000000" stroke="none" 
	d="
M194.946030,432.000916 
	C186.993408,433.929871 184.820389,432.213531 184.994568,424.671661 
	C185.013809,423.839294 185.049942,423.007233 185.083145,422.175262 
	C185.324677,416.119934 182.960236,414.339264 177.034866,415.888733 
	C175.359756,416.326813 174.999985,417.334839 174.878479,418.745697 
	C174.607040,421.897675 174.232849,425.043732 174.067429,428.200989 
	C173.929703,430.829956 173.986313,433.255310 170.165085,433.038055 
	C166.432648,432.825897 163.336197,431.898590 163.356964,427.534058 
	C163.379898,422.714752 163.827621,417.894104 164.179977,413.080597 
	C164.617508,407.103271 165.200943,401.136414 165.612183,395.157501 
	C165.795883,392.486511 165.934189,390.127502 169.669144,390.463074 
	C172.913666,390.754578 175.757050,391.390259 175.990433,395.329651 
	C176.137711,397.815521 176.041458,400.323578 175.921265,402.815247 
	C175.805618,405.212128 175.966721,407.395355 179.176407,406.930573 
	C181.888504,406.537842 185.998062,408.886536 186.481461,403.600525 
	C186.739105,400.783173 186.877228,397.955078 187.093399,395.133698 
	C187.255646,393.015961 186.917419,390.499420 190.206757,390.531097 
	C193.043854,390.558411 196.140137,390.335632 197.216003,393.859375 
	C197.689240,395.409302 197.844559,397.149017 197.726013,398.772003 
	C196.926056,409.724976 196.013977,420.669739 194.946030,432.000916 
z"/>
<path fill="#4B2D1C" opacity="1.000000" stroke="none" 
	d="
M379.819275,391.100525 
	C382.841980,392.954071 382.934814,395.662231 382.762787,398.350952 
	C382.124542,408.323761 381.410248,418.291870 380.694214,428.259552 
	C380.512390,430.790894 380.469025,433.363953 376.646088,433.037506 
	C373.219757,432.744812 370.189697,432.161469 370.019135,427.929657 
	C369.912018,425.272858 369.972351,422.589050 370.226440,419.943207 
	C370.519379,416.893372 369.322266,415.513000 366.297699,415.839294 
	C363.637482,416.126282 359.887451,414.410950 359.774353,419.487030 
	C359.707703,422.478180 359.277954,425.460602 359.030182,428.448517 
	C358.855011,430.560974 359.281891,433.047241 355.915253,432.983978 
	C352.855438,432.926483 349.700287,432.983124 348.632294,429.234802 
	C348.276733,427.986938 348.235474,426.590576 348.330780,425.282501 
	C349.069000,415.149750 349.873627,405.021790 350.663452,394.892822 
	C350.830627,392.748749 350.610870,390.348846 353.937256,390.491302 
	C357.028229,390.623718 360.302460,390.680817 360.854126,394.618958 
	C361.242676,397.392792 361.001129,400.266846 360.910309,403.092010 
	C360.838745,405.318665 361.049500,407.386993 363.951813,406.906891 
	C366.634796,406.462982 370.760406,409.062866 371.436615,403.813171 
	C371.734039,401.504089 371.879059,399.171326 372.000580,396.844482 
	C372.356232,390.033264 372.448120,389.945312 379.819275,391.100525 
z"/>
<path fill="#4B2C1C" opacity="1.000000" stroke="none" 
	d="
M418.389404,390.677368 
	C422.017578,391.142975 422.777313,393.414795 422.609558,396.140839 
	C422.160583,403.437317 422.307434,410.785248 420.928772,418.006531 
	C418.740082,429.470306 410.846222,435.127563 399.792450,433.205841 
	C393.545929,432.119843 389.510498,428.161560 389.127625,421.814606 
	C388.544830,412.153198 390.100830,402.573975 390.929443,392.971954 
	C391.194336,389.901855 393.571777,390.522980 395.457367,390.562378 
	C398.637970,390.628815 401.138641,391.860992 401.103516,395.468018 
	C401.055023,400.449890 400.668976,405.427734 400.479980,410.409302 
	C400.366760,413.392548 400.137878,416.396362 400.367676,419.359406 
	C400.534210,421.506073 401.250153,423.735657 404.044067,423.972015 
	C406.551910,424.184235 408.111053,422.779388 409.097565,420.662598 
	C410.304718,418.072418 410.827606,415.311493 411.017426,412.464661 
	C411.393494,406.824219 412.057434,401.192139 412.164795,395.548279 
	C412.245331,391.317017 413.985657,389.812347 418.389404,390.677368 
z"/>
<path fill="#4B2D1C" opacity="1.000000" stroke="none" 
	d="
M100.951530,425.864136 
	C95.295799,421.902924 90.435371,423.265381 89.154434,429.149963 
	C88.222603,433.430817 85.516479,433.361267 82.430054,432.807434 
	C79.090485,432.208221 77.503853,430.200897 78.440918,426.699677 
	C81.545937,415.098206 86.049728,404.016327 90.916023,393.066040 
	C92.362022,389.812164 95.222626,390.543579 97.802971,390.463776 
	C100.846870,390.369598 103.670227,391.100433 104.616394,394.327850 
	C108.030891,405.974731 110.884750,417.768188 113.297005,429.664795 
	C113.776443,432.029358 112.652405,432.890411 110.308258,433.039093 
	C105.006630,433.375397 102.703987,431.797546 100.951530,425.864136 
z"/>
<path fill="#4B2D1C" opacity="1.000000" stroke="none" 
	d="
M55.668655,405.204041 
	C54.594849,408.984314 54.054604,412.432373 54.400646,415.952728 
	C55.140606,423.480530 60.212246,426.156464 67.133797,422.958893 
	C69.159592,422.023010 71.554459,418.258942 73.299355,420.925781 
	C75.232803,423.880798 73.400681,427.696350 70.566750,430.208801 
	C63.198936,436.740784 48.638649,433.726562 45.059608,424.533234 
	C41.103973,414.372620 42.466682,404.455505 49.199684,395.776794 
	C54.021912,389.561035 65.451378,387.943207 72.099098,392.044556 
	C76.081902,394.501801 77.656227,398.199158 76.730827,402.730682 
	C76.032341,406.151123 73.317474,407.421600 70.129974,407.875763 
	C68.057930,408.170990 66.541588,407.788666 66.289253,405.262268 
	C66.052704,402.893921 66.648712,399.699585 63.196167,399.313568 
	C59.313084,398.879395 57.140823,401.447571 55.668655,405.204041 
z"/>
<path fill="#4B2E1D" opacity="1.000000" stroke="none" 
	d="
M295.959045,398.951660 
	C292.119904,398.485535 290.805817,399.896576 290.732727,403.372253 
	C290.662659,406.707214 292.278625,407.230560 294.998413,407.254395 
	C296.975372,407.271667 299.721191,406.501434 299.764099,409.980652 
	C299.803711,413.193146 298.620026,415.443390 295.005402,415.771210 
	C292.878815,415.964081 290.213470,415.062225 289.738922,418.709351 
	C289.243378,422.518311 289.835327,425.001190 294.427307,424.627502 
	C295.914520,424.506500 297.421692,424.592865 298.918304,424.634735 
	C300.895416,424.690002 303.146790,424.351074 303.131012,427.447937 
	C303.117096,430.178345 302.510559,432.710205 299.282318,432.837616 
	C293.969910,433.047272 288.635132,433.036865 283.323944,432.800964 
	C280.191559,432.661835 278.474548,430.548218 278.669006,427.419525 
	C279.380951,415.964966 280.242340,404.519775 281.005127,393.068237 
	C281.186157,390.350037 283.176636,390.489899 284.975189,390.465759 
	C289.799988,390.400970 294.628204,390.357391 299.450775,390.477356 
	C301.252502,390.522186 303.810242,389.774963 303.918091,392.954651 
	C304.016266,395.849670 303.321564,398.331482 299.892456,398.810242 
	C298.745758,398.970367 297.568237,398.909424 295.959045,398.951660 
z"/>
<path fill="#4B2F1D" opacity="1.000000" stroke="none" 
	d="
M263.437408,428.511719 
	C263.545563,432.179047 262.033691,433.358093 258.847534,433.007050 
	C255.431793,432.630676 252.916000,431.281952 253.077332,427.545868 
	C253.399658,420.082489 253.726746,412.596558 254.622879,405.189026 
	C255.175323,400.622375 254.590164,398.163086 249.270157,398.879578 
	C247.481186,399.120544 245.013962,399.553253 244.959229,396.338684 
	C244.908859,393.381195 245.634720,390.830566 249.075912,390.645996 
	C253.880814,390.388245 258.704254,390.464905 263.519958,390.423981 
	C266.344177,390.399963 269.172241,390.341736 271.992096,390.456970 
	C274.006470,390.539307 276.699005,389.851349 276.588806,393.349762 
	C276.496918,396.266388 275.619476,398.623413 272.161285,398.866241 
	C271.498871,398.912750 270.818481,399.029053 270.172699,398.934143 
	C265.997681,398.320587 265.186035,400.676392 265.024323,404.201141 
	C264.658966,412.163788 264.015594,420.113678 263.437408,428.511719 
z"/>
<path fill="#4B2E1D" opacity="1.000000" stroke="none" 
	d="
M136.754730,406.928589 
	C136.196625,414.353851 135.627701,421.312042 135.170807,428.277618 
	C135.000153,430.879150 135.108704,433.386658 131.267593,433.027618 
	C128.045166,432.726410 125.085320,432.118408 124.974350,428.173645 
	C124.867111,424.361420 125.140396,420.534302 125.342697,416.718842 
	C125.509842,413.566650 125.866142,410.424835 126.052834,407.273315 
	C126.476578,400.119751 126.468147,400.028961 119.245453,398.975037 
	C117.274895,398.687500 116.709976,397.774811 116.724442,396.064240 
	C116.747414,393.347321 117.384697,390.907410 120.600922,390.662384 
	C124.074127,390.397797 127.574272,390.458069 131.063065,390.434265 
	C135.385468,390.404785 139.708954,390.390411 144.030563,390.458801 
	C145.948547,390.489136 148.291260,390.055603 148.251968,393.215942 
	C148.218613,395.898285 147.732941,398.242157 144.526016,398.779602 
	C144.198807,398.834442 143.849823,398.940094 143.538162,398.880280 
	C137.035233,397.632874 136.593719,401.762817 136.754730,406.928589 
z"/>
<path fill="#4B2C1C" opacity="1.000000" stroke="none" 
	d="
M308.657349,427.490540 
	C309.391663,416.474457 310.197174,405.865845 310.869232,395.248779 
	C311.037994,392.582764 311.035126,390.203247 314.767181,390.470612 
	C318.237122,390.719238 321.197510,391.463104 321.070343,395.770966 
	C320.952698,399.756226 320.627197,403.735382 320.389954,407.717072 
	C320.241638,410.206390 320.065857,412.694305 319.939514,415.184753 
	C319.510406,423.642944 319.514618,423.660370 327.822540,424.664154 
	C329.388123,424.853271 330.898926,424.952637 330.837555,427.083710 
	C330.768280,429.488739 330.574188,432.265076 327.736328,432.634003 
	C322.481110,433.317169 317.126312,433.536560 311.876648,432.428253 
	C309.634644,431.954926 308.799591,430.077118 308.657349,427.490540 
z"/>
<path fill="#7B5BA9" opacity="1.000000" stroke="none" 
	d="
M288.575073,343.893738 
	C296.613068,341.333771 305.066040,341.592194 313.787781,343.654602 
	C305.668640,343.872040 297.306732,343.894928 288.575073,343.893738 
z"/>
<path fill="#C17240" opacity="1.000000" stroke="none" 
	d="
M230.063522,343.924927 
	C231.037491,341.437714 232.645813,341.313202 234.381424,343.818665 
	C233.076797,344.054260 231.807449,344.013977 230.063522,343.924927 
z"/>
<path fill="#4EAE69" opacity="1.000000" stroke="none" 
	d="
M229.167953,414.895050 
	C228.587448,416.699799 228.230835,418.173920 227.564804,419.491638 
	C226.024216,422.539673 223.686691,424.468231 220.024750,424.016724 
	C216.430984,423.573700 215.071640,420.941559 214.451538,417.863617 
	C213.474411,413.013367 213.936798,408.246704 216.176910,403.798828 
	C217.827774,400.520935 220.680359,398.839600 224.337006,399.298737 
	C228.153275,399.777954 229.303955,402.780792 229.754730,406.098663 
	C230.137726,408.917816 230.011322,411.730713 229.167953,414.895050 
z"/>
<path fill="#4EA865" opacity="1.000000" stroke="none" 
	d="
M448.268738,422.281830 
	C446.321899,426.097778 442.939056,427.006866 440.309479,425.012939 
	C437.609406,422.965485 438.996246,419.161926 440.071747,416.391846 
	C441.029968,413.923859 446.463165,414.859314 447.946686,417.622772 
	C448.665100,418.961090 448.870880,420.423950 448.268738,422.281830 
z"/>
<path fill="#4EA866" opacity="1.000000" stroke="none" 
	d="
M448.734070,404.572815 
	C446.868073,407.452728 444.374481,407.348236 441.855713,406.857086 
	C440.379639,406.569244 440.211914,405.215485 440.436096,404.074127 
	C440.867035,401.880096 439.574463,398.452209 443.497742,398.381165 
	C447.165405,398.314667 449.664062,399.876740 448.734070,404.572815 
z"/>
<path fill="#4EA765" opacity="1.000000" stroke="none" 
	d="
M95.681404,403.540070 
	C96.139114,402.634949 96.518059,400.591431 97.194008,402.766815 
	C98.165176,405.892273 98.479996,409.236237 98.918694,412.507874 
	C99.247566,414.960358 97.476479,415.026917 95.706650,415.050140 
	C93.477112,415.079346 92.711746,414.079132 93.315369,411.952240 
	C94.082359,409.249695 94.828667,406.541290 95.681404,403.540070 
z"/>
</svg>